<mxfile host="app.diagrams.net" modified="2021-08-06T07:24:34.151Z" agent="5.0 (Windows NT 10.0; Win64; x64) AppleWebKit/537.36 (KHTML, like Gecko) Chrome/92.0.4515.131 Safari/537.36" etag="UKia2toUYkaxCgyd_oZ3" version="14.9.4" type="github">
  <diagram id="ypQX3XJ5oK7nzJZUI-tC" name="Page-1">
    <mxGraphModel dx="1209" dy="662" grid="1" gridSize="10" guides="1" tooltips="1" connect="1" arrows="1" fold="1" page="1" pageScale="1" pageWidth="827" pageHeight="1169" math="0" shadow="0">
      <root>
        <mxCell id="0" />
        <mxCell id="1" parent="0" />
        <mxCell id="vrzFgJofKZ1kXJlAJPBR-2" value="Professor&amp;nbsp;" style="rounded=0;whiteSpace=wrap;html=1;" vertex="1" parent="1">
          <mxGeometry x="40" y="105" width="120" height="40" as="geometry" />
        </mxCell>
        <mxCell id="vrzFgJofKZ1kXJlAJPBR-3" value="adivce" style="rhombus;whiteSpace=wrap;html=1;" vertex="1" parent="1">
          <mxGeometry x="290" y="40" width="80" height="80" as="geometry" />
        </mxCell>
        <mxCell id="vrzFgJofKZ1kXJlAJPBR-4" value="students" style="rounded=0;whiteSpace=wrap;html=1;" vertex="1" parent="1">
          <mxGeometry x="490" y="55" width="120" height="50" as="geometry" />
        </mxCell>
        <mxCell id="vrzFgJofKZ1kXJlAJPBR-5" value="1" style="endArrow=none;html=1;entryX=0;entryY=0.5;entryDx=0;entryDy=0;exitX=1;exitY=0;exitDx=0;exitDy=0;" edge="1" parent="1" source="vrzFgJofKZ1kXJlAJPBR-2" target="vrzFgJofKZ1kXJlAJPBR-3">
          <mxGeometry width="50" height="50" relative="1" as="geometry">
            <mxPoint x="230" y="200" as="sourcePoint" />
            <mxPoint x="280" y="150" as="targetPoint" />
          </mxGeometry>
        </mxCell>
        <mxCell id="vrzFgJofKZ1kXJlAJPBR-8" value="M" style="endArrow=none;html=1;entryX=0;entryY=0.5;entryDx=0;entryDy=0;exitX=1;exitY=0.5;exitDx=0;exitDy=0;" edge="1" parent="1" source="vrzFgJofKZ1kXJlAJPBR-3" target="vrzFgJofKZ1kXJlAJPBR-4">
          <mxGeometry width="50" height="50" relative="1" as="geometry">
            <mxPoint x="430" y="120" as="sourcePoint" />
            <mxPoint x="470" y="70" as="targetPoint" />
          </mxGeometry>
        </mxCell>
        <mxCell id="vrzFgJofKZ1kXJlAJPBR-11" value="teaches&amp;nbsp;" style="rhombus;whiteSpace=wrap;html=1;" vertex="1" parent="1">
          <mxGeometry x="260" y="180" width="80" height="80" as="geometry" />
        </mxCell>
        <mxCell id="vrzFgJofKZ1kXJlAJPBR-12" value="1" style="endArrow=none;html=1;entryX=0;entryY=0.5;entryDx=0;entryDy=0;exitX=1;exitY=1;exitDx=0;exitDy=0;" edge="1" parent="1" source="vrzFgJofKZ1kXJlAJPBR-2" target="vrzFgJofKZ1kXJlAJPBR-11">
          <mxGeometry width="50" height="50" relative="1" as="geometry">
            <mxPoint x="220" y="200" as="sourcePoint" />
            <mxPoint x="270" y="150" as="targetPoint" />
          </mxGeometry>
        </mxCell>
        <mxCell id="vrzFgJofKZ1kXJlAJPBR-15" value="Class&amp;nbsp;" style="rounded=0;whiteSpace=wrap;html=1;" vertex="1" parent="1">
          <mxGeometry x="490" y="210" width="120" height="50" as="geometry" />
        </mxCell>
        <mxCell id="vrzFgJofKZ1kXJlAJPBR-16" value="M" style="endArrow=none;html=1;entryX=0;entryY=0.5;entryDx=0;entryDy=0;exitX=1;exitY=0.5;exitDx=0;exitDy=0;" edge="1" parent="1" source="vrzFgJofKZ1kXJlAJPBR-11" target="vrzFgJofKZ1kXJlAJPBR-15">
          <mxGeometry width="50" height="50" relative="1" as="geometry">
            <mxPoint x="430" y="250" as="sourcePoint" />
            <mxPoint x="480" y="200" as="targetPoint" />
          </mxGeometry>
        </mxCell>
        <mxCell id="vrzFgJofKZ1kXJlAJPBR-17" value="Take&amp;nbsp;" style="rhombus;whiteSpace=wrap;html=1;" vertex="1" parent="1">
          <mxGeometry x="740" y="140" width="80" height="80" as="geometry" />
        </mxCell>
        <mxCell id="vrzFgJofKZ1kXJlAJPBR-18" value="1" style="endArrow=none;html=1;entryX=1;entryY=0.5;entryDx=0;entryDy=0;exitX=0.5;exitY=0;exitDx=0;exitDy=0;" edge="1" parent="1" source="vrzFgJofKZ1kXJlAJPBR-17" target="vrzFgJofKZ1kXJlAJPBR-4">
          <mxGeometry width="50" height="50" relative="1" as="geometry">
            <mxPoint x="720" y="200" as="sourcePoint" />
            <mxPoint x="770" y="150" as="targetPoint" />
          </mxGeometry>
        </mxCell>
        <mxCell id="vrzFgJofKZ1kXJlAJPBR-19" value="M" style="endArrow=none;html=1;entryX=0.5;entryY=1;entryDx=0;entryDy=0;exitX=1;exitY=0.25;exitDx=0;exitDy=0;" edge="1" parent="1" source="vrzFgJofKZ1kXJlAJPBR-15" target="vrzFgJofKZ1kXJlAJPBR-17">
          <mxGeometry width="50" height="50" relative="1" as="geometry">
            <mxPoint x="680" y="330" as="sourcePoint" />
            <mxPoint x="730" y="280" as="targetPoint" />
          </mxGeometry>
        </mxCell>
        <mxCell id="vrzFgJofKZ1kXJlAJPBR-28" value="Course&amp;nbsp;" style="rounded=0;whiteSpace=wrap;html=1;" vertex="1" parent="1">
          <mxGeometry x="490" y="440" width="120" height="40" as="geometry" />
        </mxCell>
        <mxCell id="vrzFgJofKZ1kXJlAJPBR-29" value="generates&amp;nbsp;" style="rhombus;whiteSpace=wrap;html=1;" vertex="1" parent="1">
          <mxGeometry x="510" y="310" width="80" height="80" as="geometry" />
        </mxCell>
        <mxCell id="vrzFgJofKZ1kXJlAJPBR-30" value="" style="endArrow=none;html=1;entryX=0.5;entryY=1;entryDx=0;entryDy=0;exitX=0.5;exitY=0;exitDx=0;exitDy=0;" edge="1" parent="1" source="vrzFgJofKZ1kXJlAJPBR-29" target="vrzFgJofKZ1kXJlAJPBR-15">
          <mxGeometry width="50" height="50" relative="1" as="geometry">
            <mxPoint x="350" y="430" as="sourcePoint" />
            <mxPoint x="400" y="380" as="targetPoint" />
          </mxGeometry>
        </mxCell>
        <mxCell id="vrzFgJofKZ1kXJlAJPBR-31" value="" style="endArrow=none;html=1;entryX=0.5;entryY=1;entryDx=0;entryDy=0;exitX=0.5;exitY=0;exitDx=0;exitDy=0;" edge="1" parent="1" source="vrzFgJofKZ1kXJlAJPBR-28" target="vrzFgJofKZ1kXJlAJPBR-29">
          <mxGeometry width="50" height="50" relative="1" as="geometry">
            <mxPoint x="440" y="420" as="sourcePoint" />
            <mxPoint x="490" y="370" as="targetPoint" />
          </mxGeometry>
        </mxCell>
      </root>
    </mxGraphModel>
  </diagram>
</mxfile>
